<svg xmlns="http://www.w3.org/2000/svg" viewBox="0 0 512 512" width="512" height="512" role="img" aria-label="Fr猫re Jacques">
<defs>
<linearGradient id="g" x1="0" y1="0" x2="1" y2="1"><stop offset="0" stop-color="#5C7CFA"/><stop offset="1" stop-color="#9B7BE0"/></linearGradient>
<radialGradient id="gl" cx="0.5" cy="0.34" r="0.72"><stop offset="0" stop-color="#fff" stop-opacity="0.20"/><stop offset="1" stop-color="#fff" stop-opacity="0"/></radialGradient>
</defs>
<rect width="512" height="512" fill="url(#g)"/>
<rect width="512" height="512" fill="url(#gl)"/><path d="M188 148a44 44 0 0 1 44 44v78h20v26H148v-26h20v-78a44 44 0 0 1 20-44z" fill="#FFF6E0" opacity=".95"/>
<circle cx="220" cy="298" r="18" fill="#FFF6E0" opacity=".95"/>
<path d="M340 196a34 34 0 0 1 34 34v58h16v22H306v-22h16v-58a34 34 0 0 1 18-34z" fill="#FFF6E0" opacity=".7"/>
<circle cx="362" cy="312" r="14" fill="#FFF6E0" opacity=".7"/>
<path d="M0 424q128-44 256 0t256 0v88H0z" fill="#2E2A63" opacity=".45"/>
</svg>
